<svg xmlns="http://www.w3.org/2000/svg" viewBox="0 0 648.0654 235.2539"><defs><style>.cls-1{fill:#939393;}.cls-2{fill:#312b7f;}</style></defs><title>regulatory 2.0_1</title><g id="Layer_2" data-name="Layer 2"><g id="Layer_1-2" data-name="Layer 1"><path class="cls-1" d="M78.5405,169.0039H58.6519L32.81,137.8574H16.7217v31.1465H0V75.6992c14.061,0,28.1226.1328,42.1841.1328,20.9018.1328,31.9228,14.7735,31.9228,30.8789,0,12.7784-5.5737,25.6895-22.4223,29.2832l26.8559,31.8116ZM16.7217,92.2031v29.8145H42.1841c10.6406,0,15.2012-7.4531,15.2012-14.9063S52.6982,92.2031,42.1841,92.2031Z"/><path class="cls-1" d="M96.9058,141.9834c1.0131,8.12,7.7275,13.9756,18.6215,13.9756,5.7007,0,13.1748-2.2617,16.7217-6.1221l9.8809,10.249c-6.5874,7.1875-17.355,10.6485-26.856,10.6485-21.5351,0-34.33-13.9766-34.33-35.0059,0-19.9658,12.9209-34.3418,33.1895-34.3418,20.9023,0,33.95,13.5772,31.543,40.5967Zm33.95-13.4434c-1.0132-8.5185-7.3472-12.7773-16.2149-12.7773-8.3608,0-15.2011,4.2588-17.4814,12.7773Z"/><path class="cls-1" d="M206.1006,96.7285l11.4009,9.0508-6.9673,9.3184c4.8139,5.7226,6.5874,12.2441,6.5874,19.4316,0,8.1191-2.9136,19.5664-13.1748,24.4912,10.3877,5.458,12.9214,13.3106,12.9214,21.6963,0,18.1016-13.1748,29.2822-31.29,29.2822s-31.6694-11.58-31.6694-29.2822h15.3281c0,8.5176,7.4736,14.1084,16.3413,14.1084s15.835-5.0576,15.835-14.1084-8.1074-13.1777-15.835-13.1777c-19.5083,0-31.6694-12.5118-31.6694-33.01s14.188-33.2754,31.6694-33.2754c4.94,0,10.0073.666,14.3145,3.7266Zm-36.8633,37.8008c0,11.4473,7.3472,18.2363,16.3413,18.2363,8.8677,0,16.2149-6.9218,16.2149-18.2363,0-11.3125-7.3472-18.5-16.2149-18.5C176.5845,116.0293,169.2373,123.083,169.2373,134.5293Z"/><path class="cls-1" d="M242.3271,103.3838v34.3408c0,9.9824,5.1939,17.5693,15.0748,17.5693,9.5009,0,15.9614-8.3857,15.9614-18.3681v-33.542h15.3281v65.7529H274.8838l-1.0137-8.9179c-6.46,6.6552-12.4145,9.85-21.1553,9.85-14.9482,0-25.8422-11.8457-25.8422-32.211V103.3838Z"/><path class="cls-1" d="M317.1924,75.9648v93.0391H301.8643V75.9648Z"/><path class="cls-1" d="M379.771,103.3838h14.8213v65.62H380.0239l-.76-9.584c-3.5469,7.7207-13.3013,11.4473-20.2686,11.58-18.4951.1328-32.1763-11.8457-32.1763-34.873,0-22.627,14.3145-34.4727,32.5562-34.34,8.3608,0,16.3418,4.126,19.8887,10.6484ZM342.2739,136.127c0,12.5117,8.2339,19.9648,18.4951,19.9648,24.3223,0,24.3223-39.7969,0-39.7969C350.5078,116.2949,342.2739,123.6152,342.2739,136.127Z"/><path class="cls-1" d="M426.26,84.8828v18.6348h17.228v13.9746h-17.355v28.3516c0,6.2558,3.2939,9.3164,8.1074,9.3164a16.976,16.976,0,0,0,7.4741-1.9961l4.3072,13.8427a33.1123,33.1123,0,0,1-12.7945,2.7959c-13.5546.5313-22.4223-7.5879-22.4223-23.9589V117.4922H399.1509V103.5176h11.6543V86.6133Z"/><path class="cls-1" d="M516.5791,136.26c0,18.9-12.2881,34.208-32.5566,34.208s-32.43-15.3076-32.43-34.208c0-18.7676,12.415-34.2071,32.3037-34.2071S516.5791,117.4922,516.5791,136.26Zm-49.5312,0c0,9.9824,5.7,19.3007,16.9746,19.3007s16.9755-9.3183,16.9755-19.3007c0-9.85-6.5878-19.4327-16.9755-19.4327C472.875,116.8271,467.0479,126.41,467.0479,136.26Z"/><path class="cls-1" d="M541.0254,103.3838l1.14,7.5869c4.8145-8.1191,11.2745-9.3164,17.6084-9.3164,6.461,0,12.668,2.6611,16.0889,6.2549l-6.9678,14.1084a15.0169,15.0169,0,0,0-11.1474-4.2588c-8.1075,0-15.5821,4.5264-15.5821,16.6377v34.6074H526.7109v-65.62Z"/><path class="cls-1" d="M648.0654,103.3838l-38.13,93.0381H592.96l11.6543-28.4834-24.9551-64.5547h17.9883l9.5009,28.3506,5.9541,18.5019,6.46-18.1015,11.4014-28.751Z"/><path class="cls-2" d="M113.5317,235.2539c-8.7109.001-15.7407-2.4717-20.6943-7.4258-9.3921-9.3916-9.8516-26.5527-1.2939-48.32a4,4,0,0,1,7.4453,2.9277c-7.3213,18.6221-7.4966,32.7334-.4942,39.7364,7.5855,7.5859,23.86,6.6572,44.6485-2.55,22.2724-9.8623,47.1128-27.8682,69.9443-50.7,50.2-50.2,68.062-99.7813,53.25-114.5938-7.5854-7.5859-23.8589-6.6572-44.6484,2.55-22.2725,9.8623-47.1128,27.8682-69.9444,50.7a4,4,0,0,1-5.6572-5.6562c23.5117-23.5117,49.21-42.1074,72.3623-52.3594,24.33-10.7725,43.3442-11.0928,53.5449-.8906,10.1988,10.1992,9.8824,29.2148-.8916,53.5439-10.2524,23.1524-28.8467,48.8506-52.3584,72.3623s-49.21,42.1074-72.3623,52.3594C133.8682,232.4785,122.7578,235.2539,113.5317,235.2539Z"/><path class="cls-2" d="M239.1318,199.5527H226.6665l-2.0435,4.7227h-4.87l10.6939-25.0469h4.9043l10.6943,25.0469h-4.9043Zm-6.2329-15.0644-4.4272,10.6631h8.855Z"/><path class="cls-2" d="M248.0845,204.2754V190.7148h-3.1333v-3.8291h3.1333v-1.1806c0-4.7227,3.0312-6.9063,6.4028-6.9063a7.8331,7.8331,0,0,1,4.3594,1.4317l-1.5327,3.2558a4.4906,4.4906,0,0,0-2.5542-.93c-1.4307,0-2.5205,1.002-2.5205,3.1485v1.1806h4.9384v3.8291h-4.9384v13.5606Z"/><path class="cls-2" d="M261.8071,204.2754V190.7148h-3.1333v-3.8291h3.1333v-1.1806c0-4.7227,3.0313-6.9063,6.4029-6.9063a7.833,7.833,0,0,1,4.3593,1.4317l-1.5327,3.2558a4.49,4.49,0,0,0-2.5542-.93c-1.4306,0-2.52,1.002-2.52,3.1485v1.1806H270.9v3.8291h-4.9385v13.5606Z"/><path class="cls-2" d="M287.4839,186.6348h3.9849v17.6406h-3.9166l-.2045-2.5762c-.9537,2.0762-3.5762,3.0781-5.4493,3.1133-4.9721.0361-8.65-3.1846-8.65-9.375,0-6.082,3.8487-9.2676,8.753-9.2314a6.083,6.083,0,0,1,5.3467,2.8623Zm-10.0811,8.8027c0,3.3633,2.2139,5.3672,4.9727,5.3672,6.5391,0,6.5391-10.6983,0-10.6983C279.6167,190.1064,277.4028,192.0742,277.4028,195.4375Z"/><path class="cls-2" d="M299.5024,181.6621a2.454,2.454,0,1,1-4.9043,0A2.454,2.454,0,1,1,299.5024,181.6621Zm-4.53,4.9024v17.7109h4.1552V186.5645Z"/><path class="cls-2" d="M306.7212,186.6348l.3061,2.04a4.8756,4.8756,0,0,1,4.7344-2.5049,6.2,6.2,0,0,1,4.3252,1.6817l-1.873,3.7929a4.04,4.04,0,0,0-2.9971-1.1445c-2.18,0-4.1895,1.2168-4.1895,4.4727v9.3027h-4.1547V186.6348Z"/><path class="cls-2" d="M328.6172,191.3223a5.5066,5.5066,0,0,0-4.1548-1.5743c-1.9751,0-3.0649.6446-3.0649,1.754,0,1.1445.9873,1.789,3.1328,1.9316,3.1675.2148,7.1865.9668,7.1865,5.6543,0,3.1133-2.418,5.7969-7.22,5.7969a9.5664,9.5664,0,0,1-7.7652-3.1494l2.0435-3.1124a8.9889,8.9889,0,0,0,5.79,2.4688c1.5668.0352,3.0312-.8232,3.0312-2.1113,0-1.2168-.9536-1.7178-3.3379-1.8614-3.167-.25-6.9473-1.4668-6.9473-5.4746,0-4.0781,4.0186-5.51,7.084-5.51a8.7493,8.7493,0,0,1,6.5391,2.3261Z"/><path class="cls-2" d="M359.2651,185.3477a8.8965,8.8965,0,0,0-6.0625-2.5049c-5.1084,0-8.2075,4.0791-8.2075,9.2314,0,4.1153,2.2818,8.3731,8.2075,8.3731a7.691,7.691,0,0,0,5.3814-2.0039v-4.4375h-6.0967v-4.2217h10.2178V200.34a11.6516,11.6516,0,0,1-9.5025,4.5088c-8.957,0-12.601-6.19-12.601-12.7744,0-7.0488,4.1889-13.5615,12.601-13.5615a12.2836,12.2836,0,0,1,8.855,3.8291Z"/><path class="cls-2" d="M370.1929,179.2637v25.0117h-4.1211V179.2637Z"/><path class="cls-2" d="M390.5234,195.4736c0,5.0811-3.3032,9.1963-8.7524,9.1963s-8.7188-4.1152-8.7188-9.1963c0-5.0459,3.3374-9.1963,8.6846-9.1963S390.5234,190.4277,390.5234,195.4736Zm-13.3164,0c0,2.6836,1.5327,5.1885,4.564,5.1885s4.5635-2.5049,4.5635-5.1885c0-2.6474-1.771-5.2236-4.5635-5.2236C378.7739,190.25,377.207,192.8262,377.207,195.4736Z"/><path class="cls-2" d="M397.5361,179.2637v9.7695c.9873-1.8252,3.7461-2.8271,5.5171-2.8271,4.9043,0,8.5484,3.1494,8.5484,9.2314,0,5.7969-3.712,9.2324-8.65,9.2324a6.0178,6.0178,0,0,1-5.4151-2.8271l-.2724,2.4326h-3.8828V179.2637Zm.2725,16.1738a4.8323,4.8323,0,1,0,9.6382,0c0-3.1846-2.1118-5.1523-4.7681-5.1523A4.9158,4.9158,0,0,0,397.8086,195.4375Z"/><path class="cls-2" d="M427.98,186.6348h3.9849v17.6406h-3.9165l-.2046-2.5762c-.9537,2.0762-3.5757,3.0781-5.4493,3.1133-4.9721.0361-8.65-3.1846-8.65-9.375,0-6.082,3.8481-9.2676,8.7524-9.2314a6.0833,6.0833,0,0,1,5.3472,2.8623Zm-10.0811,8.8027c0,3.3633,2.2139,5.3672,4.9727,5.3672,6.5391,0,6.5391-10.6983,0-10.6983C420.1123,190.1064,417.8984,192.0742,417.8984,195.4375Z"/><path class="cls-2" d="M439.5894,179.2637v25.0117h-4.1211V179.2637Z"/><path class="cls-2" d="M466.083,179.1934h4.4961v25.082h-2.793v.0361l-12.5332-16.9248v16.8887h-4.4951V179.2285h3.6436l11.6816,15.5293Z"/><path class="cls-2" d="M477.9307,197.0117c.2724,2.1836,2.0771,3.7578,5.0068,3.7578a6.722,6.722,0,0,0,4.4951-1.6465l2.6563,2.7559a10.0357,10.0357,0,0,1-7.22,2.8623c-5.79,0-9.23-3.7568-9.23-9.4111,0-5.3672,3.4737-9.2315,8.9229-9.2315,5.6191,0,9.127,3.6494,8.4805,10.9131Zm9.1279-3.6133c-.2734-2.29-1.9756-3.4355-4.3594-3.4355a4.5426,4.5426,0,0,0-4.7,3.4355Z"/><path class="cls-2" d="M499.3828,181.6621v5.01h4.6328v3.7558H499.35V198.05c0,1.6816.8848,2.5049,2.18,2.5049a4.5611,4.5611,0,0,0,2.0088-.5371l1.1582,3.7217a8.8878,8.8878,0,0,1-3.44.7509c-3.6445.1436-6.0283-2.039-6.0283-6.44v-7.6221h-3.1338v-3.7558h3.1338V182.127Z"/><path class="cls-2" d="M522.5391,186.6l3.6787,13.2754L530.0664,186.6h4.5977l-5.8584,17.7481H523.97l-1.7373-5.2247-1.498-5.9042-1.4981,5.9042-1.7373,5.2247h-4.8359L506.7705,186.6h4.6318l3.8487,13.2754L518.8955,186.6Z"/><path class="cls-2" d="M554.8545,195.4736c0,5.0811-3.3037,9.1963-8.7529,9.1963s-8.7188-4.1152-8.7188-9.1963c0-5.0459,3.3379-9.1963,8.6846-9.1963S554.8545,190.4277,554.8545,195.4736Zm-13.3164,0c0,2.6836,1.5322,5.1885,4.5635,5.1885s4.5634-2.5049,4.5634-5.1885c0-2.6474-1.77-5.2236-4.5634-5.2236C543.1045,190.25,541.5381,192.8262,541.5381,195.4736Z"/><path class="cls-2" d="M561.56,186.6348l.3066,2.04A4.8746,4.8746,0,0,1,566.6,186.17a6.202,6.202,0,0,1,4.3262,1.6817l-1.874,3.7929a4.038,4.038,0,0,0-2.9971-1.1445c-2.18,0-4.1885,1.2168-4.1885,4.4727v9.3027h-4.1553V186.6348Z"/><path class="cls-2" d="M576.542,179.2637v14.457l5.6533-7.0859h4.9727v.2509l-6.8457,8.0518,7.8,9.0156v.3223h-5.0069l-6.5732-7.9785v7.9785h-4.1553V179.2637Z"/><circle class="cls-2" cx="99.666" cy="70" r="23"/><circle class="cls-2" cx="145.666" cy="46" r="8"/><circle class="cls-2" cx="120.666" cy="12" r="12"/><circle class="cls-2" cx="162.666" cy="17" r="13"/></g></g></svg>